# Blender v3.0.1 OBJ File: 'shipTrainerScene.blend'
# www.blender.org
mtllib frame.mtl
o Cube.001_Cube
v -0.086240 0.031008 0.010172
v -0.086240 0.023202 -0.010172
v -0.086240 -0.035977 0.010172
v -0.086240 -0.028171 -0.010172
v -0.124935 0.023063 0.010172
v -0.124935 0.021474 -0.010548
v -0.124935 -0.028032 0.010172
v -0.124935 -0.026443 -0.010548
v -0.086240 -0.002485 0.010172
v -0.086240 -0.002485 -0.012693
v -0.124935 -0.002485 0.010172
v -0.124935 -0.002485 -0.011695
v -0.061042 -0.002485 0.010172
v -0.061042 0.032386 0.010172
v -0.061042 0.023603 -0.010172
v -0.061042 -0.002485 -0.013824
v -0.061042 -0.028572 -0.010172
v -0.061042 -0.037355 0.010172
v -0.044357 -0.002485 0.012132
v -0.045326 0.033167 0.012650
v -0.044357 0.023603 -0.010172
v -0.044357 -0.002485 -0.012960
v -0.044357 -0.028572 -0.010172
v -0.045326 -0.038136 0.012650
v -0.013868 -0.002485 0.014529
v -0.014838 0.035786 0.015047
v -0.013868 0.027250 -0.009598
v -0.013868 -0.002485 -0.012385
v -0.013868 -0.032219 -0.009598
v -0.014838 -0.040755 0.015047
v 0.029104 -0.002485 0.017102
v 0.028135 0.035786 0.017620
v 0.029104 0.027250 -0.009598
v 0.029104 -0.002485 -0.012385
v 0.029104 -0.032219 -0.009598
v 0.028135 -0.040755 0.017620
v 0.084118 0.038843 0.020010
v 0.085088 0.020547 -0.009598
v 0.085088 -0.002485 -0.012385
v 0.085088 -0.025516 -0.009598
v 0.084118 -0.043812 0.020010
v 0.085088 -0.002485 0.017102
v 0.123724 -0.002485 0.017102
v 0.113941 0.027123 0.020010
v 0.123724 0.011237 -0.001451
v 0.123724 -0.002485 -0.000876
v 0.123724 -0.016206 -0.001451
v 0.113941 -0.032092 0.020010
v 0.156106 -0.002485 0.017102
vt 0.375000 0.250000
vt 0.625000 0.250000
vt 0.625000 0.250000
vt 0.375000 0.524590
vt 0.375000 0.625000
vt 0.375000 0.725410
vt 0.625000 0.719165
vt 0.375000 1.000000
vt 0.625000 1.000000
vt 0.125000 0.625000
vt 0.125000 0.750000
vt 0.875000 0.625000
vt 0.625000 0.625000
vt 0.625000 0.530835
vt 0.125000 0.500000
vt 0.125000 0.625000
vt 0.125000 0.750000
vt 0.125000 0.625000
vt 0.875000 0.500000
vt 0.875000 0.625000
vt 0.875000 0.625000
vt 0.125000 0.500000
vt 0.375000 1.000000
vt 0.625000 1.000000
vt 0.875000 0.750000
vt 0.875000 0.750000
vt 0.125000 0.500000
vt 0.125000 0.500000
vt 0.125000 0.625000
vt 0.375000 1.000000
vt 0.375000 1.000000
vt 0.625000 1.000000
vt 0.875000 0.750000
vt 0.375000 0.250000
vt 0.625000 0.250000
vt 0.625000 1.000000
vt 0.375000 1.000000
vt 0.625000 1.000000
vt 0.375000 0.250000
vt 0.625000 0.250000
vt 0.625000 0.250000
vt 0.875000 0.500000
vt 0.875000 0.625000
vt 0.125000 0.750000
vt 0.875000 0.750000
vt 0.375000 0.250000
vt 0.125000 0.750000
vt 0.125000 0.625000
vt 0.125000 0.625000
vt 0.875000 0.625000
vt 0.875000 0.625000
vt 0.875000 0.500000
vt 0.125000 0.500000
vt 0.875000 0.500000
vt 0.875000 0.750000
vt 0.375000 0.250000
vt 0.000000 0.000000
vt 0.625000 0.250000
vt 0.375000 1.000000
vt 0.375000 1.000000
vt 0.625000 1.000000
vt 0.875000 0.750000
vt 0.375000 0.250000
vt 0.625000 0.250000
vt 0.625000 1.000000
vt 0.125000 0.500000
vt 0.875000 0.625000
vt 0.875000 0.500000
vt 0.625000 0.125000
vt 0.000000 0.000000
vt 0.000000 0.000000
vt 0.625000 0.000000
vt 0.375000 0.250000
vt 0.125000 0.625000
vt 0.125000 0.750000
vt 0.875000 0.750000
vt 0.125000 0.500000
vt 0.000000 0.000000
vt 0.875000 0.500000
vt 0.125000 0.750000
vt 0.125000 0.750000
vt 0.875000 0.500000
vn -0.0149 -0.9335 -0.3582
vn -0.1883 -0.9169 -0.3518
vn -1.0000 0.0000 0.0000
vn -0.1883 0.9169 -0.3518
vn 0.0000 -0.0000 1.0000
vn -0.0258 0.0478 -0.9985
vn -0.0258 -0.0478 -0.9985
vn -0.1167 -0.0000 0.9932
vn 0.0512 -0.1384 -0.9890
vn -0.0502 0.9169 -0.3958
vn -0.0016 0.0977 -0.9952
vn -0.0444 -0.1385 -0.9894
vn -0.0770 0.0154 0.9969
vn -0.0551 0.9428 -0.3287
vn 0.0000 0.1062 -0.9943
vn 0.0000 -0.9181 -0.3963
vn 0.0150 0.9224 -0.3859
vn -0.1548 0.0186 0.9878
vn 0.0179 0.9542 -0.2986
vn 0.0000 -0.9449 -0.3273
vn 0.0187 -0.1062 -0.9942
vn -0.0784 -0.0166 0.9968
vn 0.0076 0.0933 -0.9956
vn -0.1022 -0.9159 -0.3882
vn 0.0000 -0.0135 0.9999
vn 0.0000 -0.1201 -0.9928
vn -0.0598 0.0150 0.9981
vn 0.0000 -0.0933 -0.9956
vn -0.0598 -0.0150 0.9981
vn 0.0000 0.0933 -0.9956
vn -0.5249 0.7809 0.3387
vn 0.3242 0.8250 -0.4629
vn 0.0112 0.0933 -0.9956
vn 0.1137 -0.9491 -0.2936
vn -0.0240 0.8501 -0.5261
vn -0.0387 0.0710 0.9967
vn 0.2852 0.0401 -0.9576
vn -0.4851 -0.0366 0.8737
vn 0.0000 -0.0977 0.9952
vn 0.5249 0.7809 -0.3387
vn 0.4851 -0.0366 -0.8737
vn 0.3007 -0.8157 -0.4942
vn 0.2318 0.1169 -0.9657
vn -0.0278 0.0708 0.9971
vn 0.0000 0.0977 0.9952
vn -0.0502 -0.9169 -0.3958
vn -0.0437 -0.9961 -0.0764
vn -0.0437 0.9961 -0.0764
vn 0.0053 0.0977 -0.9952
vn 0.0053 -0.0977 -0.9952
vn -0.1548 -0.0186 0.9878
vn 0.0000 -0.1062 -0.9943
vn -0.0149 0.9335 -0.3582
vn -0.0444 0.1385 -0.9894
vn -0.0016 -0.0977 -0.9952
vn -0.0784 0.0166 0.9968
vn -0.1022 0.9159 -0.3882
vn 0.0512 0.1384 -0.9890
vn 0.0150 -0.9224 -0.3859
vn 0.0000 0.9181 -0.3963
vn 0.0000 0.9449 -0.3273
vn 0.0179 -0.9542 -0.2986
vn 0.0076 -0.0933 -0.9956
vn -0.0770 -0.0154 0.9969
vn 0.0187 0.1062 -0.9942
vn -0.0551 -0.9428 -0.3287
vn -0.0387 -0.0710 0.9967
vn 0.0112 -0.0933 -0.9956
vn 0.3007 0.8157 -0.4942
vn 0.0000 0.1201 -0.9928
vn -0.0240 -0.8501 -0.5261
vn 0.1137 0.9491 -0.2936
vn 0.0000 0.0135 0.9999
vn 0.2318 -0.1169 -0.9657
vn 0.3242 -0.8250 -0.4629
vn -0.0278 -0.0708 0.9971
vn 0.2852 -0.0401 -0.9576
usemtl None
s off
f 3/1/1 4/2/1 17/3/1
f 4/2/2 3/1/2 7/4/2
f 11/5/3 5/6/3 6/7/3
f 5/6/4 1/8/4 2/9/4
f 9/10/5 1/11/5 5/6/5
f 10/12/6 12/13/6 6/7/6
f 8/14/7 12/13/7 10/12/7
f 7/4/5 3/15/5 9/10/5
f 8/14/3 7/4/3 11/5/3
f 1/11/5 9/10/5 13/16/5
f 14/17/8 13/16/8 19/18/8
f 17/19/9 16/20/9 22/21/9
f 3/15/5 18/22/5 13/16/5
f 1/8/10 14/23/10 15/24/10
f 10/12/11 2/25/11 15/26/11
f 10/12/12 16/20/12 17/19/12
f 24/27/13 30/28/13 25/29/13
f 20/30/14 26/31/14 27/32/14
f 15/26/15 21/33/15 22/21/15
f 18/34/16 17/3/16 23/35/16
f 14/23/17 20/30/17 21/36/17
f 18/22/18 24/27/18 19/18/18
f 26/31/19 32/37/19 33/38/19
f 30/39/20 29/40/20 35/41/20
f 23/42/21 22/21/21 28/43/21
f 20/44/22 19/18/22 25/29/22
f 21/33/23 27/45/23 28/43/23
f 24/46/24 23/35/24 29/40/24
f 32/47/25 31/48/25 42/49/25
f 34/50/26 39/51/26 40/52/26
f 25/29/27 30/28/27 36/53/27
f 29/54/28 28/43/28 34/50/28
f 25/29/29 31/48/29 32/47/29
f 28/43/30 27/45/30 33/55/30
f 48/56/31 49/57/31 47/58/31
f 37/59/32 44/60/32 45/61/32
f 34/50/33 33/55/33 38/62/33
f 36/63/34 35/41/34 40/64/34
f 32/37/35 37/59/35 38/65/35
f 36/53/36 41/66/36 42/49/36
f 39/51/37 46/67/37 47/68/37
f 46/69/38 47/68/38 49/57/38
f 49/57/39 44/70/39 43/71/39
f 44/60/40 49/57/40 45/61/40
f 46/69/41 45/72/41 49/57/41
f 41/73/42 40/64/42 47/58/42
f 42/49/39 43/74/39 44/75/39
f 39/51/43 38/62/43 45/76/43
f 42/49/44 41/66/44 48/77/44
f 49/57/45 43/71/45 48/78/45
f 3/1/46 17/3/46 18/34/46
f 4/2/47 7/4/47 8/14/47
f 11/5/3 6/7/3 12/13/3
f 5/6/48 2/9/48 6/7/48
f 9/10/5 5/6/5 11/5/5
f 10/12/49 6/7/49 2/25/49
f 8/14/50 10/12/50 4/79/50
f 7/4/5 9/10/5 11/5/5
f 8/14/3 11/5/3 12/13/3
f 1/11/5 13/16/5 14/17/5
f 14/17/51 19/18/51 20/44/51
f 17/19/52 22/21/52 23/42/52
f 3/15/5 13/16/5 9/10/5
f 1/8/53 15/24/53 2/9/53
f 10/12/54 15/26/54 16/20/54
f 10/12/55 17/19/55 4/79/55
f 24/27/56 25/29/56 19/18/56
f 20/30/57 27/32/57 21/36/57
f 15/26/58 22/21/58 16/20/58
f 18/34/59 23/35/59 24/46/59
f 14/23/60 21/36/60 15/24/60
f 18/22/8 19/18/8 13/16/8
f 26/31/61 33/38/61 27/32/61
f 30/39/62 35/41/62 36/63/62
f 23/42/63 28/43/63 29/54/63
f 20/44/64 25/29/64 26/80/64
f 21/33/65 28/43/65 22/21/65
f 24/46/66 29/40/66 30/39/66
f 32/47/67 42/49/67 37/81/67
f 34/50/68 40/52/68 35/82/68
f 25/29/27 36/53/27 31/48/27
f 29/54/28 34/50/28 35/82/28
f 25/29/29 32/47/29 26/80/29
f 28/43/30 33/55/30 34/50/30
f 37/59/69 45/61/69 38/65/69
f 34/50/70 38/62/70 39/51/70
f 36/63/71 40/64/71 41/73/71
f 32/37/72 38/65/72 33/38/72
f 36/53/73 42/49/73 31/48/73
f 39/51/74 47/68/74 40/52/74
f 41/73/75 47/58/75 48/56/75
f 42/49/76 44/75/76 37/81/76
f 39/51/77 45/76/77 46/67/77
f 42/49/45 48/77/45 43/74/45
