# Blender 4.1.0
# www.blender.org
mtllib frame.mtl
o Cube.001
v -0.015883 -0.034216 -0.001115
v -0.015883 0.035239 -0.001115
v -0.077735 0.034211 0.010153
v -0.077735 -0.033189 0.010153
v -0.126733 0.008534 -0.003870
v -0.126733 -0.007511 -0.003870
v -0.126733 0.027055 0.008499
v -0.126733 -0.026033 0.008499
v -0.126733 -0.023556 -0.004216
v -0.126733 0.024579 -0.004216
v -0.074322 -0.012451 0.010415
v -0.074322 0.013473 0.010415
v -0.126733 -0.008337 0.008733
v -0.126733 0.009359 0.008733
v -0.077734 -0.030045 -0.003283
v -0.077734 0.031067 -0.003283
v -0.015883 0.038812 0.014000
v -0.015883 -0.037790 0.014000
v -0.013556 -0.015438 0.014005
v -0.013556 0.016460 0.014005
v 0.082017 0.044233 0.018716
v 0.082017 -0.043211 0.018716
v 0.084929 -0.016213 0.018369
v 0.084929 0.017235 0.018369
v 0.126733 0.030122 0.018665
v 0.126733 -0.029100 0.018665
v 0.123032 -0.011244 0.018498
v 0.123032 0.012266 0.018498
v 0.038736 0.016894 0.016826
v 0.038736 -0.015871 0.016826
v 0.034681 -0.040199 0.016909
v 0.034681 0.041221 0.016909
v 0.179072 0.000511 0.017669
v 0.124690 0.022581 0.001497
v 0.088529 -0.033672 0.001520
v 0.088529 0.034695 0.001520
v 0.124690 -0.021559 0.001497
v 0.034681 -0.037362 0.000524
v 0.034681 0.038384 0.000524
v 0.149441 0.000511 0.001035
v -0.015883 -0.026344 -0.013836
v -0.015883 0.027366 -0.013836
v -0.126733 0.006715 -0.017399
v -0.126733 -0.005693 -0.017399
v -0.126733 -0.018100 -0.014109
v -0.126733 0.019123 -0.014109
v -0.077734 -0.023118 -0.013416
v -0.077734 0.024140 -0.013416
v 0.107503 0.011632 -0.010034
v 0.078538 -0.025334 -0.011271
v 0.078538 0.026356 -0.011271
v 0.107503 -0.010610 -0.010034
v 0.034681 -0.028033 -0.012240
v 0.034681 0.029055 -0.012240
v 0.121155 0.000511 -0.011743
v -0.074472 0.008441 -0.017790
v -0.074472 -0.007418 -0.017790
v 0.081036 0.013289 -0.015191
v -0.015515 -0.012554 -0.018776
v -0.015515 0.013576 -0.018776
v 0.033172 -0.012554 -0.015534
v 0.033172 0.013576 -0.018778
v 0.033172 -0.012554 -0.018778
v 0.081036 -0.013170 -0.018840
v -0.126733 0.000511 -0.018169
v -0.073331 0.000511 -0.018169
v -0.016017 0.000511 -0.018169
v 0.033901 0.000511 -0.019662
v 0.081150 0.000511 -0.016468
v 0.107015 0.000511 -0.014847
v -0.074322 0.000511 0.010415
v -0.126733 0.000511 0.008733
v -0.126733 0.000511 -0.003870
v -0.013556 0.000511 0.014005
v 0.084929 0.000511 0.018369
v 0.123032 0.000511 0.018498
v 0.038736 0.000511 0.016826
v -0.126733 0.000511 -0.017399
vn 0.0691 -0.8833 -0.4638
vn -0.0347 -0.0069 0.9994
vn -1.0000 -0.0000 -0.0000
vn -0.0580 -0.9715 -0.2297
vn -0.1333 0.9650 -0.2258
vn 0.3648 0.6667 -0.6499
vn 0.2775 0.8809 -0.3835
vn -0.0371 0.9847 -0.1705
vn 0.2890 -0.8634 -0.4136
vn -0.0371 -0.9847 -0.1705
vn -0.0347 0.0069 0.9994
vn -0.0321 -0.0000 0.9995
vn -0.0561 0.9838 -0.1703
vn -0.0590 -0.0000 0.9983
vn -0.0587 0.0059 0.9983
vn -0.0622 0.0023 0.9981
vn -0.0334 -0.0000 0.9994
vn -0.0333 0.0164 0.9993
vn -0.0375 -0.0096 0.9992
vn -0.0034 -0.0000 1.0000
vn -0.0045 0.0084 1.0000
vn -0.0030 -0.0132 0.9999
vn -0.0572 -0.0057 0.9983
vn -0.0538 0.0123 0.9985
vn -0.0539 -0.0000 0.9985
vn 0.0148 -0.0000 0.9999
vn 0.0123 0.0119 0.9999
vn 0.0123 -0.0119 0.9999
vn -0.0580 0.9715 -0.2297
vn -0.1333 -0.9650 -0.2258
vn 0.3648 -0.6667 -0.6499
vn -0.0311 -0.8070 -0.5898
vn -0.0981 0.8215 -0.5617
vn 0.1865 -0.5584 -0.8083
vn -0.0981 -0.8215 -0.5617
vn 0.3710 -0.4333 -0.8213
vn 0.1865 0.5584 -0.8083
vn 0.3710 0.4333 -0.8213
vn 0.0663 0.8114 -0.5808
vn -0.0311 0.8070 -0.5898
vn -0.0389 -0.8497 -0.5259
vn -0.0389 0.8497 -0.5259
vn 0.0663 -0.8114 -0.5808
vn -0.0160 0.2653 -0.9640
vn -0.0160 -0.2653 -0.9640
vn -0.0203 0.2644 -0.9642
vn -0.0450 -0.3358 -0.9409
vn 0.0161 -0.3877 -0.9216
vn 0.0161 0.3877 -0.9216
vn -0.0079 -0.5271 -0.8497
vn 0.0441 0.3851 -0.9218
vn 0.3114 -0.5473 -0.7768
vn 0.2005 0.3165 -0.9272
vn -0.0000 0.0477 -0.9989
vn -0.0000 -0.0477 -0.9989
vn -0.0000 0.0464 -0.9989
vn -0.0206 0.0447 -0.9988
vn -0.0298 -0.0658 -0.9974
vn -0.0000 -0.0464 -0.9989
vn 0.0665 0.1699 -0.9832
vn 0.0750 0.0715 -0.9946
vn 0.0575 -0.3944 -0.9171
vn 0.1997 0.3818 -0.9024
vn 0.1982 -0.3820 -0.9027
vn 0.1982 0.3820 -0.9027
vn -0.0561 -0.9838 -0.1703
vn -0.0331 -0.0132 0.9994
vn -0.0576 -0.9721 -0.2275
vn -0.1254 0.9738 -0.1897
vn 0.6122 0.6945 -0.3779
vn 0.2890 0.8634 -0.4136
vn -0.0530 0.9718 -0.2297
vn 0.2775 -0.8809 -0.3835
vn -0.0530 -0.9718 -0.2297
vn -0.0331 0.0132 0.9994
vn 0.0691 0.8833 -0.4638
vn -0.0622 -0.0023 0.9981
vn -0.0587 -0.0059 0.9983
vn -0.0375 0.0096 0.9992
vn -0.0333 -0.0164 0.9993
vn -0.0030 0.0132 0.9999
vn -0.0045 -0.0084 1.0000
vn -0.0538 -0.0123 0.9985
vn -0.0572 0.0057 0.9983
vn -0.0576 0.9721 -0.2275
vn -0.1254 -0.9738 -0.1897
vn 0.6122 -0.6945 -0.3779
vn -0.0118 -0.8503 -0.5262
vn -0.0826 0.8727 -0.4813
vn 0.3519 -0.6343 -0.6884
vn -0.0826 -0.8727 -0.4813
vn 0.2713 -0.4628 -0.8439
vn 0.3519 0.6343 -0.6884
vn 0.2713 0.4628 -0.8439
vn 0.0626 0.8058 -0.5889
vn -0.0118 0.8503 -0.5262
vn -0.0468 -0.8246 -0.5638
vn -0.0468 0.8246 -0.5638
vn 0.0626 -0.8058 -0.5889
vn -0.0126 0.2563 -0.9665
vn -0.0126 -0.2563 -0.9665
vn -0.0450 0.3358 -0.9409
vn -0.0203 -0.2644 -0.9642
vn -0.0000 -0.3372 -0.9414
vn -0.0000 0.3372 -0.9414
vn 0.0441 -0.3851 -0.9218
vn 0.0731 0.2993 -0.9513
vn -0.0115 0.1231 -0.9923
vn -0.0115 -0.1231 -0.9923
vn -0.0206 -0.0447 -0.9988
vn -0.0298 0.0658 -0.9974
vn -0.0022 -0.0674 -0.9977
vn 0.0671 0.0998 -0.9927
vn 0.2976 0.1607 -0.9411
vn 0.0622 0.0998 -0.9931
vt 0.625000 0.250000
vt 0.555462 0.250000
vt 0.625000 0.500000
vt 0.625000 0.250000
vt 0.500000 0.500000
vt 0.541667 0.500000
vt 0.375000 0.250000
vt 0.375000 0.500000
vt 0.438242 0.250000
vt 0.375000 0.250000
vt 0.444538 0.250000
vt 0.500000 0.250000
vt 0.503451 0.250000
vt 0.568660 0.250000
vt 0.503073 0.250000
vt 0.503465 0.250000
vt 0.568687 0.250000
vt 0.567904 0.250000
vt 0.568660 0.250000
vt 0.438242 0.250000
vt 0.503451 0.250000
vt 0.458333 0.500000
vt 0.604990 0.250000
vt 0.397462 0.250000
vt 0.000000 0.000000
vt 0.500000 0.500000
s 0
f 22/1/1 38/1/1 35/1/1
f 11/2/2 8/3/2 4/4/2
f 72/5/3 6/6/3 13/6/3
f 4/4/4 1/1/4 18/1/4
f 16/7/5 7/8/5 3/7/5
f 40/9/6 25/7/6 33/9/6
f 25/7/7 36/7/7 21/7/7
f 39/10/8 17/7/8 32/10/8
f 26/1/9 35/1/9 37/1/9
f 18/1/10 38/1/10 31/1/10
f 7/8/11 12/11/11 3/7/11
f 71/12/12 13/6/12 11/2/12
f 21/7/13 39/10/13 32/10/13
f 13/6/3 9/3/3 8/3/3
f 74/13/14 12/11/14 71/12/14
f 11/2/15 18/1/15 19/14/15
f 12/11/16 17/7/16 3/7/16
f 75/15/17 29/9/17 77/16/17
f 30/17/18 22/1/18 23/18/18
f 29/9/19 21/7/19 32/10/19
f 75/15/20 28/9/20 24/9/20
f 23/18/21 26/1/21 27/19/21
f 24/9/22 25/7/22 21/7/22
f 20/20/23 32/10/23 17/7/23
f 19/14/24 31/1/24 30/17/24
f 77/16/25 20/20/25 74/13/25
f 27/19/26 33/19/26 76/21/26
f 27/19/27 26/1/27 33/19/27
f 28/9/28 33/9/28 25/7/28
f 2/7/29 3/7/29 17/7/29
f 8/3/30 15/4/30 4/4/30
f 26/1/31 40/19/31 33/19/31
f 10/8/3 14/22/3 7/8/3
f 73/5/3 44/6/3 6/6/3
f 1/1/32 53/1/32 38/1/32
f 48/7/33 10/8/33 16/7/33
f 35/1/34 52/23/34 37/1/34
f 9/3/35 47/4/35 15/4/35
f 37/1/36 55/19/36 40/19/36
f 49/24/37 36/7/37 34/7/37
f 55/9/38 34/7/38 40/9/38
f 51/7/39 39/10/39 36/7/39
f 54/10/40 2/7/40 39/10/40
f 15/4/41 41/1/41 1/1/41
f 46/8/3 5/22/3 10/8/3
f 6/6/3 45/3/3 9/3/3
f 42/7/42 16/7/42 2/7/42
f 38/1/43 50/1/43 35/1/43
f 43/22/44 48/7/44 56/25/44
f 47/4/45 44/6/45 57/6/45
f 42/7/46 56/25/46 48/7/46
f 41/1/47 57/6/47 59/25/47
f 41/1/48 63/25/48 53/1/48
f 62/25/49 42/7/49 54/10/49
f 50/1/50 63/25/50 64/25/50
f 51/7/51 62/25/51 54/10/51
f 52/23/52 50/1/52 64/25/52
f 49/24/53 58/25/53 51/7/53
f 65/22/3 78/26/3 43/22/3
f 65/22/54 56/25/54 66/25/54
f 57/6/55 65/22/55 66/25/55
f 59/25/56 66/25/56 67/25/56
f 60/25/57 66/25/57 56/25/57
f 63/25/58 67/25/58 68/25/58
f 62/25/59 67/25/59 60/25/59
f 64/25/60 68/25/60 69/25/60
f 58/25/61 68/25/61 62/25/61
f 52/23/62 69/25/62 70/25/62
f 70/25/63 58/25/63 49/24/63
f 55/19/64 52/23/64 70/25/64
f 55/19/65 70/25/65 49/24/65
f 43/22/3 73/5/3 5/22/3
f 19/14/25 77/16/25 74/13/25
f 27/19/20 75/15/20 23/18/20
f 30/17/17 75/15/17 77/16/17
f 11/2/14 74/13/14 71/12/14
f 14/22/12 71/12/12 12/11/12
f 5/22/3 72/5/3 14/22/3
f 33/19/26 28/9/26 76/21/26
f 22/1/66 31/1/66 38/1/66
f 11/2/67 13/6/67 8/3/67
f 72/5/3 73/5/3 6/6/3
f 4/4/68 15/4/68 1/1/68
f 16/7/69 10/8/69 7/8/69
f 40/9/70 34/7/70 25/7/70
f 25/7/71 34/7/71 36/7/71
f 39/10/72 2/7/72 17/7/72
f 26/1/73 22/1/73 35/1/73
f 18/1/74 1/1/74 38/1/74
f 7/8/75 14/22/75 12/11/75
f 71/12/12 72/5/12 13/6/12
f 21/7/76 36/7/76 39/10/76
f 13/6/3 6/6/3 9/3/3
f 74/13/14 20/20/14 12/11/14
f 11/2/77 4/4/77 18/1/77
f 12/11/78 20/20/78 17/7/78
f 75/15/17 24/9/17 29/9/17
f 30/17/79 31/1/79 22/1/79
f 29/9/80 24/9/80 21/7/80
f 75/15/20 76/21/20 28/9/20
f 23/18/81 22/1/81 26/1/81
f 24/9/82 28/9/82 25/7/82
f 20/20/83 29/9/83 32/10/83
f 19/14/84 18/1/84 31/1/84
f 77/16/25 29/9/25 20/20/25
f 2/7/85 16/7/85 3/7/85
f 8/3/86 9/3/86 15/4/86
f 26/1/87 37/1/87 40/19/87
f 10/8/3 5/22/3 14/22/3
f 73/5/3 78/26/3 44/6/3
f 1/1/88 41/1/88 53/1/88
f 48/7/89 46/8/89 10/8/89
f 35/1/90 50/1/90 52/23/90
f 9/3/91 45/3/91 47/4/91
f 37/1/92 52/23/92 55/19/92
f 49/24/93 51/7/93 36/7/93
f 55/9/94 49/24/94 34/7/94
f 51/7/95 54/10/95 39/10/95
f 54/10/96 42/7/96 2/7/96
f 15/4/97 47/4/97 41/1/97
f 46/8/3 43/22/3 5/22/3
f 6/6/3 44/6/3 45/3/3
f 42/7/98 48/7/98 16/7/98
f 38/1/99 53/1/99 50/1/99
f 43/22/100 46/8/100 48/7/100
f 47/4/101 45/3/101 44/6/101
f 42/7/102 60/25/102 56/25/102
f 41/1/103 47/4/103 57/6/103
f 41/1/104 59/25/104 63/25/104
f 62/25/105 60/25/105 42/7/105
f 50/1/106 53/1/106 63/25/106
f 51/7/107 58/25/107 62/25/107
f 65/22/3 44/6/3 78/26/3
f 65/22/108 43/22/108 56/25/108
f 57/6/109 44/6/109 65/22/109
f 59/25/110 57/6/110 66/25/110
f 60/25/59 67/25/59 66/25/59
f 63/25/56 59/25/56 67/25/56
f 62/25/111 68/25/111 67/25/111
f 64/25/112 63/25/112 68/25/112
f 58/25/113 69/25/113 68/25/113
f 52/23/114 64/25/114 69/25/114
f 70/25/115 69/25/115 58/25/115
f 43/22/3 78/26/3 73/5/3
f 19/14/25 30/17/25 77/16/25
f 27/19/20 76/21/20 75/15/20
f 30/17/17 23/18/17 75/15/17
f 11/2/14 19/14/14 74/13/14
f 14/22/12 72/5/12 71/12/12
f 5/22/3 73/5/3 72/5/3
l 63 61
